<svg width="15" height="15" viewBox="0 0 15 15" fill="none" xmlns="http://www.w3.org/2000/svg">
<path opacity="0.4" d="M11.4066 4.35648C11.3675 4.34998 11.322 4.34998 11.283 4.35648C10.3853 4.32396 9.66978 3.58891 9.66978 2.67824C9.66978 1.74805 10.4178 1 11.348 1C12.2782 1 13.0263 1.75456 13.0263 2.67824C13.0198 3.58891 12.3042 4.32396 11.4066 4.35648Z" stroke="#27AE60" stroke-linecap="round" stroke-linejoin="round"/>
<path opacity="0.4" d="M10.736 9.09192C11.6271 9.24153 12.6094 9.08541 13.2989 8.62357C14.2161 8.01212 14.2161 7.01038 13.2989 6.39893C12.6029 5.93706 11.6076 5.78095 10.7165 5.93706" stroke="#27AE60" stroke-linecap="round" stroke-linejoin="round"/>
<path opacity="0.4" d="M3.57995 4.35648C3.61898 4.34998 3.66451 4.34998 3.70354 4.35648C4.6012 4.32396 5.31673 3.58891 5.31673 2.67824C5.31673 1.74805 4.56868 1 3.63849 1C2.7083 1 1.96025 1.75456 1.96025 2.67824C1.96676 3.58891 2.68228 4.32396 3.57995 4.35648Z" stroke="#27AE60" stroke-linecap="round" stroke-linejoin="round"/>
<path opacity="0.4" d="M4.25078 9.09192C3.35962 9.24153 2.37739 9.08541 1.68788 8.62357C0.770706 8.01212 0.770706 7.01038 1.68788 6.39893C2.3839 5.93706 3.37913 5.78095 4.27029 5.93706" stroke="#27AE60" stroke-linecap="round" stroke-linejoin="round"/>
<path d="M7.50485 9.21585C7.46582 9.20934 7.42028 9.20934 7.38126 9.21585C6.48359 9.18333 5.76805 8.44828 5.76805 7.53761C5.76805 6.60742 6.51612 5.85938 7.4463 5.85938C8.37649 5.85938 9.12454 6.61393 9.12454 7.53761C9.11804 8.44828 8.40251 9.18983 7.50485 9.21585Z" stroke="#27AE60" stroke-linecap="round" stroke-linejoin="round"/>
<path d="M5.61223 11.2652C4.69505 11.8766 4.69505 12.8783 5.61223 13.4898C6.653 14.1858 8.35726 14.1858 9.39803 13.4898C10.3152 12.8783 10.3152 11.8766 9.39803 11.2652C8.36376 10.5757 6.653 10.5757 5.61223 11.2652Z" stroke="#27AE60" stroke-linecap="round" stroke-linejoin="round"/>
</svg>
