<svg width="26" height="25" viewBox="0 0 26 25" fill="none" xmlns="http://www.w3.org/2000/svg">
<path opacity="0.4" d="M8.79915 0C5.52397 0 2.86133 2.66265 2.86133 5.93782C2.86133 9.1505 5.37397 11.7506 8.64914 11.8631C8.74915 11.8506 8.84916 11.8506 8.92416 11.8631C8.94916 11.8631 8.96166 11.8631 8.98666 11.8631C8.99916 11.8631 8.99916 11.8631 9.01166 11.8631C12.2118 11.7506 14.7245 9.1505 14.737 5.93782C14.737 2.66265 12.0743 0 8.79915 0Z" fill="#ACACAC"/>
<path d="M15.1508 15.187C11.6631 12.8618 5.97533 12.8618 2.46263 15.187C0.875048 16.2495 0 17.6871 0 19.2247C0 20.7623 0.875048 22.1873 2.45013 23.2374C4.20023 24.4125 6.50036 25 8.80048 25C11.1006 25 13.4007 24.4125 15.1508 23.2374C16.7259 22.1748 17.6009 20.7498 17.6009 19.1997C17.5884 17.6621 16.7259 16.237 15.1508 15.187Z" fill="#ACACAC"/>
<path opacity="0.4" d="M22.5369 6.67291C22.7369 9.09804 21.0118 11.2231 18.6242 11.5106C18.6117 11.5106 18.6117 11.5106 18.5992 11.5106H18.5617C18.4867 11.5106 18.4117 11.5106 18.3492 11.5356C17.1366 11.5981 16.0241 11.2106 15.1865 10.4981C16.4741 9.34805 17.2116 7.62296 17.0616 5.74786C16.9741 4.7353 16.6241 3.81025 16.0991 3.02271C16.5741 2.7852 17.1241 2.63519 17.6867 2.58518C20.1368 2.37267 22.3244 4.19777 22.5369 6.67291Z" fill="#ACACAC"/>
<path d="M25.0353 18.239C24.9353 19.4516 24.1603 20.5016 22.8602 21.2142C21.6102 21.9017 20.0351 22.2267 18.4725 22.1892C19.3725 21.3767 19.8976 20.3641 19.9976 19.2891C20.1226 17.739 19.385 16.2514 17.9099 15.0638C17.0724 14.4013 16.0973 13.8763 15.0348 13.4887C17.7974 12.6887 21.2726 13.2262 23.4102 14.9513C24.5603 15.8764 25.1478 17.0389 25.0353 18.239Z" fill="#ACACAC"/>
</svg>
