<svg width="26" height="25" viewBox="0 0 26 25" fill="none" xmlns="http://www.w3.org/2000/svg">
<path opacity="0.4" d="M22.5651 6.02287L15.3642 0.984789C13.4015 -0.390369 10.3887 -0.315361 8.50098 1.14731L2.23776 6.03537C0.987614 7.01048 0 9.01071 0 10.5858V19.2118C0 22.3997 2.5878 25 5.77566 25H19.2522C22.44 25 25.0278 22.4122 25.0278 19.2243V10.7484C25.0278 9.06072 23.9402 6.98548 22.5651 6.02287Z" fill="#ACACAC"/>
<path d="M12.5138 20.9374C12.0012 20.9374 11.5762 20.5124 11.5762 19.9998V16.2494C11.5762 15.7368 12.0012 15.3118 12.5138 15.3118C13.0263 15.3118 13.4514 15.7368 13.4514 16.2494V19.9998C13.4514 20.5124 13.0263 20.9374 12.5138 20.9374Z" fill="#ACACAC"/>
</svg>
