<svg width="26" height="30" viewBox="0 0 26 30" fill="none" xmlns="http://www.w3.org/2000/svg">
<path opacity="0.4" d="M23.7979 11.9978V23.9993C23.7979 28.4998 22.4358 30 18.3493 30H7.45196C3.36546 30 2.0033 28.4998 2.0033 23.9993V11.9978H23.7979Z" fill="#ACACAC"/>
<path d="M25.8811 7.49719V8.99737C25.8811 10.6476 25.1592 11.9977 23.1568 11.9977H2.72433C0.640218 11.9977 0 10.6476 0 8.99737V7.49719C0 5.84699 0.640218 4.49683 2.72433 4.49683H23.1568C25.1592 4.49683 25.8811 5.84699 25.8811 7.49719Z" fill="#ACACAC"/>
<path opacity="0.4" d="M12.4512 4.49679H4.93203C4.4689 3.94173 4.48252 3.08662 4.9729 2.54656L6.90717 0.4163C7.41117 -0.138767 8.24209 -0.138767 8.74609 0.4163L12.4512 4.49679Z" fill="#ACACAC"/>
<path opacity="0.4" d="M20.9359 4.49679H13.4167L17.1218 0.4163C17.6258 -0.138767 18.4568 -0.138767 18.9608 0.4163L20.895 2.54656C21.3854 3.08662 21.399 3.94173 20.9359 4.49679Z" fill="#ACACAC"/>
<path opacity="0.6" d="M8.77161 11.9978V19.7087C8.77161 20.9089 9.97031 21.614 10.883 20.9689L12.1635 20.0388C12.6266 19.7087 13.2123 19.7087 13.6618 20.0388L14.8742 20.9389C15.7732 21.599 16.9855 20.8939 16.9855 19.6937V11.9978H8.77161Z" fill="#ACACAC"/>
</svg>
