<svg width="25" height="25" viewBox="0 0 25 25" fill="none" xmlns="http://www.w3.org/2000/svg">
<path opacity="0.4" d="M17.7375 0H7.2625C2.7125 0 0 2.7125 0 7.2625V17.725C0 22.2875 2.7125 25 7.2625 25H17.725C22.275 25 24.9875 22.2875 24.9875 17.7375V7.2625C25 2.7125 22.2875 0 17.7375 0Z" fill="#27AE60"/>
<path d="M16.9752 21.5647C16.4627 21.5647 16.0377 21.1397 16.0377 20.6272V15.7522C16.0377 15.2397 16.4627 14.8147 16.9752 14.8147C17.4877 14.8147 17.9127 15.2397 17.9127 15.7522V20.6272C17.9127 21.1397 17.4877 21.5647 16.9752 21.5647Z" fill="#27AE60"/>
<path d="M16.9752 7.75024C16.4627 7.75024 16.0377 7.32524 16.0377 6.81274V4.37524C16.0377 3.86274 16.4627 3.43774 16.9752 3.43774C17.4877 3.43774 17.9127 3.86274 17.9127 4.37524V6.81274C17.9127 7.32524 17.4877 7.75024 16.9752 7.75024Z" fill="#27AE60"/>
<path d="M8.02515 21.5635C7.51265 21.5635 7.08765 21.1385 7.08765 20.626V18.1885C7.08765 17.676 7.51265 17.251 8.02515 17.251C8.53765 17.251 8.96265 17.676 8.96265 18.1885V20.626C8.96265 21.1385 8.55015 21.5635 8.02515 21.5635Z" fill="#27AE60"/>
<path d="M8.02515 10.1877C7.51265 10.1877 7.08765 9.76274 7.08765 9.25024V4.37524C7.08765 3.86274 7.51265 3.43774 8.02515 3.43774C8.53765 3.43774 8.96265 3.86274 8.96265 4.37524V9.25024C8.96265 9.76274 8.55015 10.1877 8.02515 10.1877Z" fill="#27AE60"/>
<path d="M16.9745 6.6604C15.0995 6.6604 13.562 8.18541 13.562 10.0604C13.562 11.9354 15.087 13.4729 16.9745 13.4729C18.8495 13.4729 20.3745 11.9479 20.3745 10.0604C20.3745 8.17291 18.8495 6.6604 16.9745 6.6604Z" fill="#27AE60"/>
<path d="M8.02415 11.5381C6.14915 11.5381 4.62415 13.0631 4.62415 14.9506C4.62415 16.8381 6.14915 18.3506 8.02415 18.3506C9.89915 18.3506 11.4366 16.8256 11.4366 14.9506C11.4366 13.0756 9.91165 11.5381 8.02415 11.5381Z" fill="#27AE60"/>
</svg>
