<svg width="25" height="25" viewBox="0 0 25 25" fill="none" xmlns="http://www.w3.org/2000/svg">
<path opacity="0.4" d="M12.5 25C19.4035 25 25 19.4035 25 12.5C25 5.59644 19.4035 0 12.5 0C5.59644 0 0 5.59644 0 12.5C0 19.4035 5.59644 25 12.5 25Z" fill="#ACACAC"/>
<path d="M12.4998 22.1873C7.16226 22.1873 2.81226 17.8373 2.81226 12.4998C2.81226 11.9873 3.23726 11.5623 3.74976 11.5623C4.26226 11.5623 4.68726 11.9873 4.68726 12.4998C4.68726 16.8123 8.18726 20.3123 12.4998 20.3123C16.8123 20.3123 20.3123 16.8123 20.3123 12.4998C20.3123 8.18726 16.8123 4.68726 12.4998 4.68726C11.9873 4.68726 11.5623 4.26226 11.5623 3.74976C11.5623 3.23726 11.9873 2.81226 12.4998 2.81226C17.8373 2.81226 22.1873 7.16226 22.1873 12.4998C22.1873 17.8373 17.8373 22.1873 12.4998 22.1873Z" fill="#ACACAC"/>
<path d="M12.4999 18.4377C11.9874 18.4377 11.5624 18.0127 11.5624 17.5002C11.5624 16.9877 11.9874 16.5627 12.4999 16.5627C14.7374 16.5627 16.5624 14.7377 16.5624 12.5002C16.5624 10.2627 14.7374 8.43774 12.4999 8.43774C11.9874 8.43774 11.5624 8.01274 11.5624 7.50024C11.5624 6.98774 11.9874 6.56274 12.4999 6.56274C15.7749 6.56274 18.4374 9.22524 18.4374 12.5002C18.4374 15.7752 15.7749 18.4377 12.4999 18.4377Z" fill="#ACACAC"/>
</svg>
